<svg xmlns="http://www.w3.org/2000/svg" viewBox="0 0 1536 1024" role="img" aria-labelledby="ci-flat-title ci-flat-desc">
  <title id="ci-flat-title">요트 한판 CI 플랫 버전</title>
  <desc id="ci-flat-desc">그라데이션과 그림자 없이 단색으로 표현한 짙은 녹색 트레이와 금색 테두리, 다섯 개의 아이보리 주사위로 구성한 투명 배경 벡터 CI</desc>
  <metadata>
    Yacht Hanpan CI. Pure SVG geometry with no background canvas.
  </metadata>
  <g id="tray">
  <rect x="72" y="52" width="1392" height="880" rx="112" fill="#223028"/>
  <rect x="124" y="106" width="1288" height="772" rx="78" fill="none" stroke="#d8b270" stroke-width="24"/>
  <rect x="136" y="118" width="1264" height="748" rx="66" fill="#1a261f"/>
    <rect x="148" y="130" width="1240" height="724" rx="54" fill="#304733"/>
  </g>
  <g id="dice">
    <g transform="translate(405 335) rotate(-15)">
      <rect x="-111.0" y="-111.0" width="222" height="222" rx="35.52" fill="#f1e9df" stroke="#ddd5ca" stroke-width="2.5"/>
      <circle cx="0" cy="0" r="21" fill="#101a16" stroke="#0d1713" stroke-width="3"/>
    </g>
<g transform="translate(760 315) rotate(12)">
      <rect x="-115.0" y="-115.0" width="230" height="230" rx="36.800000000000004" fill="#f1e9df" stroke="#ddd5ca" stroke-width="2.5"/>
      <circle cx="-56.35" cy="-56.35" r="21" fill="#101a16" stroke="#0d1713" stroke-width="3"/>
<circle cx="0" cy="0" r="21" fill="#101a16" stroke="#0d1713" stroke-width="3"/>
<circle cx="56.35" cy="56.35" r="21" fill="#101a16" stroke="#0d1713" stroke-width="3"/>
    </g>
<g transform="translate(1110 345) rotate(-12)">
      <rect x="-110.0" y="-110.0" width="220" height="220" rx="35.2" fill="#f1e9df" stroke="#ddd5ca" stroke-width="2.5"/>
      <circle cx="-53.9" cy="-53.9" r="21" fill="#101a16" stroke="#0d1713" stroke-width="3"/>
<circle cx="53.9" cy="53.9" r="21" fill="#101a16" stroke="#0d1713" stroke-width="3"/>
    </g>
<g transform="translate(535 650) rotate(-7)">
      <rect x="-116.0" y="-116.0" width="232" height="232" rx="37.12" fill="#f1e9df" stroke="#ddd5ca" stroke-width="2.5"/>
      <circle cx="-56.839999999999996" cy="-56.839999999999996" r="21" fill="#101a16" stroke="#0d1713" stroke-width="3"/>
<circle cx="56.839999999999996" cy="-56.839999999999996" r="21" fill="#101a16" stroke="#0d1713" stroke-width="3"/>
<circle cx="-56.839999999999996" cy="0" r="21" fill="#101a16" stroke="#0d1713" stroke-width="3"/>
<circle cx="56.839999999999996" cy="0" r="21" fill="#101a16" stroke="#0d1713" stroke-width="3"/>
<circle cx="-56.839999999999996" cy="56.839999999999996" r="21" fill="#101a16" stroke="#0d1713" stroke-width="3"/>
<circle cx="56.839999999999996" cy="56.839999999999996" r="21" fill="#101a16" stroke="#0d1713" stroke-width="3"/>
    </g>
<g transform="translate(960 650) rotate(9)">
      <rect x="-116.0" y="-116.0" width="232" height="232" rx="37.12" fill="#f1e9df" stroke="#ddd5ca" stroke-width="2.5"/>
      <circle cx="-56.839999999999996" cy="-56.839999999999996" r="21" fill="#101a16" stroke="#0d1713" stroke-width="3"/>
<circle cx="56.839999999999996" cy="-56.839999999999996" r="21" fill="#101a16" stroke="#0d1713" stroke-width="3"/>
<circle cx="-56.839999999999996" cy="56.839999999999996" r="21" fill="#101a16" stroke="#0d1713" stroke-width="3"/>
<circle cx="56.839999999999996" cy="56.839999999999996" r="21" fill="#101a16" stroke="#0d1713" stroke-width="3"/>
    </g>
  </g>
</svg>
